<?xml version="1.0" encoding="iso-8859-1"?>
<!-- Generator: Adobe Illustrator 21.0.0, SVG Export Plug-In . SVG Version: 6.00 Build 0)  -->
<svg version="1.1" id="Layer_1" xmlns="http://www.w3.org/2000/svg" xmlns:xlink="http://www.w3.org/1999/xlink" x="0px" y="0px"
	 viewBox="0 0 100.353 100.352" style="enable-background:new 0 0 100.353 100.352;" xml:space="preserve">
<g>
	<path d="M54.334,3.648L7.31,34.998V70.82l38.357,25.53L92.692,65V29.178L54.334,3.648z M54.335,7.253l34.151,22.731L77.66,37.201
		L44.018,14.132L54.335,7.253z M45.666,58.53L11.516,35.8l17.71-11.807l33.643,23.069L45.666,58.53z M67.015,47.903l9.062-6.041
		l-0.321,14.366l-8.741,5.735V47.903z M65.558,45.269L31.916,22.2l9.413-6.275l33.643,23.069L65.558,45.269z M10.31,38.601
		l33.856,22.535v30.612L10.31,69.213V38.601z M47.166,91.745v-30.61l16.849-11.232V67.52l14.705-9.648l0.403-18.041l10.569-7.046
		v30.61L47.166,91.745z"/>
	<rect x="31.11" y="50.937" transform="matrix(0.5541 -0.8325 0.8325 0.5541 -36.5685 54.5249)" width="3" height="20.918"/>
	<rect x="34.833" y="65.813" transform="matrix(0.5541 -0.8325 0.8325 0.5541 -43.5708 62.2643)" width="3" height="11.978"/>
</g>
</svg>
